<?xml version="1.0" standalone="no"?>
<!DOCTYPE svg PUBLIC "-//W3C//DTD SVG 20010904//EN"
 "http://www.w3.org/TR/2001/REC-SVG-20010904/DTD/svg10.dtd">
<svg version="1.0" xmlns="http://www.w3.org/2000/svg"
 width="82.000000pt" height="82.000000pt" viewBox="0 0 82.000000 82.000000"
 preserveAspectRatio="xMidYMid meet">
<metadata>
Created by potrace 1.11, written by Peter Selinger 2001-2013
</metadata>
<g transform="translate(0.000000,82.000000) scale(0.100000,-0.100000)"
fill="#000000" stroke="none">
<path d="M330 806 c-197 -45 -325 -217 -316 -424 8 -160 106 -291 267 -354 40
-16 77 -21 144 -22 81 0 97 3 158 31 129 61 237 198 237 300 l0 43 -100 0
c-96 0 -102 -1 -125 -26 -14 -15 -25 -30 -25 -35 0 -4 -19 -17 -43 -28 -36
-17 -62 -21 -150 -21 -105 0 -133 -8 -108 -33 8 -8 53 -11 129 -11 131 1 161
11 215 70 30 32 36 34 95 34 61 0 63 -1 56 -22 -30 -98 -98 -176 -191 -220
-183 -87 -384 -15 -475 170 -30 61 -33 75 -33 157 1 77 5 98 28 145 33 67 49
87 110 133 63 48 169 81 245 75 114 -8 244 -94 292 -194 11 -22 20 -50 20 -62
0 -20 -5 -22 -55 -22 -48 0 -59 4 -92 34 -69 61 -96 70 -219 70 -79 0 -116 -3
-128 -13 -29 -24 -6 -31 106 -31 130 0 178 -17 216 -75 l22 -35 106 0 107 0
-6 54 c-13 126 -126 253 -268 302 -58 20 -156 25 -219 10z"/>
<path d="M265 480 c-4 -6 -1 -17 5 -25 9 -11 36 -15 109 -15 106 0 133 9 112
34 -11 13 -35 16 -117 16 -61 0 -105 -4 -109 -10z"/>
<path d="M273 373 c-18 -7 -16 -30 3 -37 9 -3 57 -6 109 -6 72 0 95 3 106 16
10 13 10 17 -2 25 -14 9 -194 11 -216 2z"/>
</g>
</svg>
